<svg xmlns="http://www.w3.org/2000/svg" xml:space="preserve" width="28.7059mm" height="28.7059mm" version="1.1" style="shape-rendering:geometricPrecision; text-rendering:geometricPrecision; image-rendering:optimizeQuality; fill-rule:evenodd; clip-rule:evenodd"
viewBox="0 0 303.1 303.1"
 >

  <path class="fil0" d="M151.55 0c41.85,0 79.73,16.96 107.16,44.39 27.42,27.43 44.39,65.31 44.39,107.16 0,41.85 -16.96,79.73 -44.39,107.16 -27.43,27.43 -65.31,44.39 -107.16,44.39 -41.85,0 -79.74,-16.96 -107.16,-44.39 -27.43,-27.43 -44.39,-65.31 -44.39,-107.16 0,-41.85 16.96,-79.74 44.39,-107.16 27.43,-27.42 65.31,-44.39 107.16,-44.39zm0 14.9c75.47,0 136.65,61.18 136.65,136.65 0,75.47 -61.18,136.65 -136.65,136.65 -75.47,0 -136.65,-61.18 -136.65,-136.65 0,-75.47 61.18,-136.65 136.65,-136.65z"/>
  <path class="fil1" d="M90.17 100.08c4.05,0 7.59,0.56 10.62,1.69 3.03,1.12 5.62,2.58 7.75,4.38 2.14,1.8 3.86,3.84 5.17,6.13 1.31,2.28 2.3,4.59 2.98,6.91 0.67,2.32 1.07,4.55 1.18,6.69 0.11,2.13 0.02,3.95 -0.28,5.45 -0.52,2.85 -1.44,5.54 -2.75,8.09 -1.31,2.55 -2.9,4.87 -4.78,6.97 -1.87,2.1 -3.95,3.95 -6.24,5.56 -2.28,1.61 -4.7,2.9 -7.25,3.88 3.6,2.4 6.41,5.47 8.43,9.22 2.02,3.75 3.03,7.72 3.03,11.91 0,4.12 -1.25,8.2 -3.76,12.25 -2.51,4.05 -5.88,7.66 -10.11,10.84 -4.23,3.18 -9.07,5.77 -14.5,7.75 -5.43,1.99 -11.07,2.98 -16.91,2.98 -2.92,0 -5.53,-0.43 -7.81,-1.29 -2.28,-0.86 -4.33,-2 -6.12,-3.43 -1.8,-1.42 -3.33,-3.03 -4.61,-4.83 -1.27,-1.8 -2.36,-3.67 -3.26,-5.62 -2.1,-4.42 -3.48,-9.48 -4.16,-15.17 0.67,-0.75 1.4,-1.07 2.19,-0.96 0.79,0.11 1.54,0.52 2.25,1.24 0.71,0.71 1.33,1.69 1.85,2.92 0.52,1.24 0.86,2.6 1.01,4.1 0.07,0.9 0.47,1.76 1.18,2.58 0.71,0.82 1.67,1.61 2.87,2.36 -0.52,-1.57 -0.79,-3.15 -0.79,-4.72 0,-1.2 0.64,-3.56 1.91,-7.08 1.27,-3.52 2.94,-7.68 5,-12.47 2.06,-4.79 4.4,-9.98 7.02,-15.56 2.62,-5.58 5.24,-11.03 7.87,-16.35 2.62,-5.32 5.13,-10.25 7.53,-14.78 2.4,-4.53 4.46,-8.19 6.18,-10.96 -4.65,0.67 -8.95,1.91 -12.92,3.71 -3.97,1.8 -7.42,4.01 -10.34,6.63 -2.92,2.62 -5.23,5.62 -6.91,8.99 -1.69,3.37 -2.53,7.01 -2.53,10.9 -1.65,-0.82 -3.11,-1.91 -4.38,-3.26 -1.05,-1.12 -2.02,-2.53 -2.92,-4.21 -0.9,-1.69 -1.35,-3.65 -1.35,-5.9 0,-2.77 0.97,-5.77 2.92,-8.99 1.95,-3.22 4.91,-6.22 8.88,-8.99 3.97,-2.77 9.03,-5.06 15.17,-6.86 6.14,-1.8 13.37,-2.7 21.69,-2.7zm-25.74 96.76c3.97,0 7.83,-0.62 11.58,-1.85 3.75,-1.24 7.08,-2.87 10,-4.89 2.92,-2.02 5.28,-4.34 7.08,-6.97 1.8,-2.62 2.7,-5.36 2.7,-8.2 0,-2.02 -0.37,-3.9 -1.12,-5.62 -0.75,-1.72 -1.74,-3.31 -2.98,-4.78 -1.24,-1.46 -2.68,-2.73 -4.33,-3.82 -1.65,-1.09 -3.37,-2 -5.17,-2.75 -1.05,-0.07 -2.06,-0.22 -3.03,-0.45 -0.97,-0.22 -1.95,-0.52 -2.92,-0.9 -1.8,3.9 -3.6,7.77 -5.39,11.63 -1.8,3.86 -3.48,7.53 -5.06,11.01 -1.57,3.48 -2.98,6.69 -4.21,9.61 -1.24,2.92 -2.23,5.43 -2.98,7.53 1.05,0.15 2.04,0.26 2.98,0.34 0.94,0.07 1.89,0.11 2.87,0.11zm18.09 -49.9c2.02,0 4.46,-0.56 7.31,-1.69 2.85,-1.12 5.54,-2.64 8.09,-4.55 2.55,-1.91 4.72,-4.14 6.52,-6.69 1.8,-2.55 2.7,-5.28 2.7,-8.2 0,-1.35 -0.19,-2.87 -0.56,-4.55 -0.37,-1.69 -1.07,-3.3 -2.08,-4.83 -1.01,-1.54 -2.36,-2.88 -4.05,-4.05 -1.69,-1.16 -3.84,-1.89 -6.46,-2.19 1.27,1.5 1.91,2.85 1.91,4.05 0,0.22 -0.41,1.25 -1.24,3.09 -0.82,1.84 -1.93,4.21 -3.32,7.14 -1.39,2.92 -3,6.31 -4.83,10.17 -1.84,3.86 -3.77,7.92 -5.79,12.19 0.37,0.07 0.97,0.11 1.8,0.11zm131.41 -54.62c6.37,0 12.16,0.82 17.36,2.47 5.21,1.65 9.8,3.88 13.77,6.69 3.97,2.81 7.38,6.07 10.23,9.78 2.85,3.71 5.11,7.64 6.8,11.8 1.69,4.16 2.85,8.41 3.48,12.75 0.64,4.35 0.73,8.54 0.28,12.59 -0.52,5.09 -1.57,10.19 -3.15,15.28 -1.57,5.09 -3.69,9.95 -6.35,14.55 -2.66,4.61 -5.84,8.9 -9.55,12.87 -3.71,3.97 -7.94,7.42 -12.7,10.34 -4.76,2.92 -10.02,5.21 -15.79,6.86 -5.77,1.65 -12.06,2.47 -18.88,2.47 -4.65,0 -8.62,-0.64 -11.91,-1.91 -3.3,-1.27 -6.05,-2.87 -8.26,-4.78 -2.21,-1.91 -3.93,-4.01 -5.17,-6.29 -1.24,-2.28 -2.17,-4.4 -2.81,-6.35 -0.64,-1.95 -1.01,-3.58 -1.12,-4.89 -0.11,-1.31 -0.13,-2 -0.06,-2.08 0.75,-0.67 1.63,-0.84 2.64,-0.51 1.01,0.34 1.99,0.96 2.92,1.86 0.94,0.9 1.72,2 2.36,3.31 0.64,1.31 0.92,2.57 0.84,3.77 0,0.82 0.28,1.5 0.84,2.02 0.56,0.52 1.31,0.96 2.25,1.29 0.94,0.34 1.99,0.56 3.15,0.67 1.16,0.11 2.3,0.17 3.43,0.17 2.1,0.07 4.16,0.07 6.18,0 -1.5,-1.57 -2.72,-3.58 -3.65,-6.01 -0.94,-2.43 -1.4,-4.59 -1.4,-6.46 0,-0.9 0.36,-2.49 1.07,-4.78 0.71,-2.28 1.7,-5.04 2.98,-8.26 1.27,-3.22 2.73,-6.78 4.38,-10.68 1.65,-3.9 3.39,-7.9 5.23,-12.03 1.84,-4.12 3.73,-8.24 5.68,-12.36 1.95,-4.12 3.84,-8.02 5.68,-11.69 1.84,-3.67 3.56,-6.99 5.17,-9.95 1.61,-2.96 2.98,-5.38 4.1,-7.25 -1.12,-0.15 -2.25,-0.28 -3.37,-0.39 -1.12,-0.11 -2.32,-0.17 -3.6,-0.17 -5.17,0 -9.97,0.67 -14.39,2.02 -4.42,1.35 -8.41,3.13 -11.97,5.34 -3.56,2.21 -6.69,4.7 -9.38,7.47 -2.7,2.77 -4.87,5.56 -6.52,8.37 -1.65,2.81 -2.79,5.54 -3.43,8.2 -0.64,2.66 -0.66,4.93 -0.06,6.8 0.15,0.6 0.02,1.09 -0.39,1.46 -0.41,0.37 -0.92,0.49 -1.52,0.34 -3.45,-1.27 -6.24,-3.41 -8.37,-6.41 -2.13,-3 -3.2,-7.23 -3.2,-12.7 0,-4.57 1.65,-9.01 4.94,-13.32 3.3,-4.31 7.6,-8.11 12.92,-11.41 5.32,-3.3 11.33,-5.94 18.04,-7.92 6.71,-1.99 13.47,-2.98 20.29,-2.98zm37.76 59.23c0.9,-3.45 1.29,-6.93 1.18,-10.45 -0.11,-3.52 -0.73,-6.95 -1.85,-10.28 -1.12,-3.33 -2.77,-6.48 -4.94,-9.44 -2.17,-2.96 -4.91,-5.64 -8.2,-8.04 -0.6,1.42 -1.82,4.12 -3.65,8.09 -1.84,3.97 -4.03,8.62 -6.57,13.94 -2.55,5.32 -5.24,11.03 -8.09,17.14 -2.85,6.11 -5.58,12.01 -8.2,17.7 -2.62,5.69 -4.93,10.9 -6.91,15.62 -1.99,4.72 -3.39,8.35 -4.21,10.9 7.19,-0.82 13.65,-2.68 19.39,-5.56 5.73,-2.88 10.73,-6.41 15,-10.56 4.27,-4.16 7.83,-8.75 10.68,-13.77 2.85,-5.02 4.98,-10.11 6.4,-15.28zm-98.23 5.81c1.66,0 2.95,0.28 3.87,0.83 0.92,0.55 1.6,1.16 2.05,1.82 0.52,0.8 0.83,1.68 0.94,2.65 -0.62,0.14 -1.16,0.16 -1.61,0.05 -0.38,-0.07 -0.74,-0.23 -1.07,-0.49 -0.33,-0.26 -0.49,-0.7 -0.49,-1.33 0,-0.21 -0.29,-0.29 -0.88,-0.23 -0.59,0.05 -1.33,0.23 -2.21,0.55 -0.88,0.31 -1.84,0.75 -2.88,1.3 -1.04,0.55 -1.99,1.25 -2.86,2.08 -0.52,0.52 -1.06,1.07 -1.61,1.64 -0.55,0.57 -1.11,1.15 -1.66,1.74 0.8,1.56 1.58,2.92 2.37,4.08 0.78,1.16 1.48,2.14 2.11,2.94 0.69,0.94 1.37,1.77 2.03,2.5 0,0.41 -0.2,0.78 -0.6,1.09 -0.4,0.31 -0.88,0.59 -1.45,0.83 -0.57,0.24 -1.18,0.42 -1.82,0.55 -0.64,0.12 -1.2,0.18 -1.69,0.18 -0.38,0 -1.02,-0.72 -1.92,-2.16 -0.9,-1.44 -1.91,-3.3 -3.02,-5.59 -1.07,1.14 -2.14,2.24 -3.2,3.3 -1.06,1.06 -2.1,1.98 -3.12,2.78 -1.02,0.8 -2.03,1.44 -3.01,1.92 -0.99,0.49 -1.95,0.73 -2.88,0.73 -3.12,0 -5.43,-0.68 -6.94,-2.03 -1.51,-1.35 -2.19,-3.04 -2.05,-5.07 0.14,-2.03 1.13,-4.22 2.96,-6.58 1.84,-2.36 4.52,-4.56 8.06,-6.6 0.31,-0.17 0.69,-0.41 1.12,-0.7 0.43,-0.29 0.87,-0.59 1.3,-0.88 0.43,-0.29 0.85,-0.59 1.25,-0.88 0.4,-0.29 0.74,-0.53 1.01,-0.7 -0.59,-2.04 -1.05,-4.04 -1.38,-5.98 -0.33,-1.94 -0.49,-3.79 -0.49,-5.56 0,-2.18 0.45,-3.96 1.35,-5.33 0.9,-1.37 2.02,-2.37 3.35,-3.02 1.33,-0.64 2.78,-0.97 4.34,-0.99 1.56,-0.02 3.01,0.24 4.34,0.78 1.33,0.54 2.45,1.3 3.35,2.29 0.9,0.99 1.35,2.16 1.35,3.51 0,1.14 -0.34,2.33 -1.01,3.56 -0.68,1.23 -1.54,2.47 -2.6,3.72 -1.06,1.25 -2.23,2.46 -3.51,3.64 -1.28,1.18 -2.51,2.29 -3.69,3.33 0.28,1.01 0.57,1.98 0.88,2.91 0.31,0.94 0.66,1.85 1.04,2.75 1.73,-1.7 3.49,-3.11 5.28,-4.24 1.78,-1.13 3.56,-1.69 5.33,-1.69zm-9.82 -18.66c-0.8,0 -1.49,0.23 -2.08,0.7 -0.59,0.47 -1.07,1.01 -1.43,1.64 -0.36,0.62 -0.63,1.25 -0.81,1.87 -0.17,0.62 -0.26,1.09 -0.26,1.4 0,1.7 0.09,3.33 0.26,4.89 0.17,1.56 0.4,3.07 0.68,4.52 2.01,-1.87 3.45,-3.71 4.31,-5.51 0.87,-1.8 1.35,-3.41 1.45,-4.81 0.1,-1.4 -0.07,-2.54 -0.52,-3.4 -0.45,-0.87 -0.99,-1.3 -1.61,-1.3zm-14.4 39.61c0.35,0 0.83,-0.31 1.46,-0.94 0.62,-0.62 1.35,-1.44 2.18,-2.44 0.83,-1 1.76,-2.15 2.78,-3.43 1.02,-1.28 2.11,-2.6 3.25,-3.95 -0.42,-1.01 -0.81,-2.04 -1.2,-3.12 -0.38,-1.07 -0.76,-2.17 -1.14,-3.27 -0.38,0.28 -0.73,0.54 -1.04,0.78 -0.31,0.24 -0.61,0.45 -0.88,0.62 -1.56,1.25 -2.93,2.55 -4.11,3.9 -0.52,0.59 -1.02,1.21 -1.51,1.87 -0.48,0.66 -0.93,1.33 -1.33,2.03 -0.4,0.69 -0.71,1.4 -0.94,2.13 -0.22,0.73 -0.34,1.45 -0.34,2.18 0,1.01 0.14,1.76 0.42,2.26 0.28,0.5 0.61,0.86 0.99,1.07 0.38,0.24 0.85,0.35 1.4,0.31z"/>
</svg>
